<mxfile host="app.diagrams.net" modified="2023-01-14T07:12:32.788Z" agent="5.0 (X11; Linux x86_64) AppleWebKit/537.36 (KHTML, like Gecko) Chrome/108.0.0.0 Safari/537.36" etag="FeNjnDQ5WBmykRYIQGYA" version="20.8.5" type="github">
  <diagram id="Hkj4WFlvK4-08UBy-HWi" name="Page-1">
    <mxGraphModel dx="1218" dy="785" grid="1" gridSize="10" guides="1" tooltips="1" connect="1" arrows="1" fold="1" page="1" pageScale="1" pageWidth="850" pageHeight="1100" math="0" shadow="0">
      <root>
        <mxCell id="0" />
        <mxCell id="1" parent="0" />
        <mxCell id="1bVyddex_vhO6T4n7lc5-1" value="Floor: 2" style="text;strokeColor=none;fillColor=none;html=1;fontSize=24;fontStyle=1;verticalAlign=middle;align=center;" parent="1" vertex="1">
          <mxGeometry x="40" y="40" width="100" height="40" as="geometry" />
        </mxCell>
        <mxCell id="1bVyddex_vhO6T4n7lc5-2" value="Room: 11" style="text;strokeColor=none;fillColor=none;html=1;fontSize=24;fontStyle=1;verticalAlign=middle;align=center;" parent="1" vertex="1">
          <mxGeometry x="160" y="40" width="100" height="40" as="geometry" />
        </mxCell>
        <mxCell id="1bVyddex_vhO6T4n7lc5-7" value="" style="verticalLabelPosition=bottom;html=1;verticalAlign=top;align=center;shape=mxgraph.floorplan.wall;fillColor=strokeColor;" parent="1" vertex="1">
          <mxGeometry x="410" y="470" width="40" height="10" as="geometry" />
        </mxCell>
        <mxCell id="1bVyddex_vhO6T4n7lc5-11" value="" style="verticalLabelPosition=bottom;html=1;verticalAlign=top;align=center;shape=mxgraph.floorplan.wall;fillColor=strokeColor;" parent="1" vertex="1">
          <mxGeometry x="140" y="470" width="100" height="10" as="geometry" />
        </mxCell>
        <mxCell id="1bVyddex_vhO6T4n7lc5-15" value="" style="rounded=0;whiteSpace=wrap;html=1;fillColor=#0F0F0F;" parent="1" vertex="1">
          <mxGeometry x="137" y="210" width="63" height="70" as="geometry" />
        </mxCell>
        <mxCell id="1bVyddex_vhO6T4n7lc5-17" value="Plant view" style="text;strokeColor=none;fillColor=none;html=1;fontSize=24;fontStyle=0;verticalAlign=middle;align=center;" parent="1" vertex="1">
          <mxGeometry x="240" y="100" width="100" height="40" as="geometry" />
        </mxCell>
        <mxCell id="1bVyddex_vhO6T4n7lc5-18" value="" style="endArrow=classic;html=1;rounded=0;dashed=1;dashPattern=8 8;" parent="1" edge="1">
          <mxGeometry width="50" height="50" relative="1" as="geometry">
            <mxPoint x="340" y="170" as="sourcePoint" />
            <mxPoint x="340" y="250" as="targetPoint" />
          </mxGeometry>
        </mxCell>
        <mxCell id="1bVyddex_vhO6T4n7lc5-19" value="entrance" style="edgeLabel;html=1;align=center;verticalAlign=middle;resizable=0;points=[];fontSize=14;" parent="1bVyddex_vhO6T4n7lc5-18" vertex="1" connectable="0">
          <mxGeometry x="-0.5444" y="-3" relative="1" as="geometry">
            <mxPoint as="offset" />
          </mxGeometry>
        </mxCell>
        <mxCell id="1bVyddex_vhO6T4n7lc5-23" value="" style="shape=dimension;direction=west;whiteSpace=wrap;html=1;align=center;points=[];verticalAlign=top;spacingTop=-8;labelBackgroundColor=#ffffff;fillColor=#0F0F0F;" parent="1" vertex="1">
          <mxGeometry x="137" y="180" width="63" height="30" as="geometry" />
        </mxCell>
        <mxCell id="1bVyddex_vhO6T4n7lc5-24" value="" style="endArrow=none;dashed=1;html=1;rounded=0;dashPattern=8 8;exitX=1;exitY=0;exitDx=0;exitDy=0;" parent="1" source="1bVyddex_vhO6T4n7lc5-15" edge="1">
          <mxGeometry width="50" height="50" relative="1" as="geometry">
            <mxPoint x="470" y="330" as="sourcePoint" />
            <mxPoint x="440" y="210" as="targetPoint" />
          </mxGeometry>
        </mxCell>
        <mxCell id="1bVyddex_vhO6T4n7lc5-26" value="" style="endArrow=none;dashed=1;html=1;rounded=0;dashPattern=8 8;entryX=0;entryY=1;entryDx=0;entryDy=0;exitX=1;exitY=0.056;exitDx=0;exitDy=0;exitPerimeter=0;" parent="1" target="1bVyddex_vhO6T4n7lc5-15" edge="1">
          <mxGeometry width="50" height="50" relative="1" as="geometry">
            <mxPoint x="139.92000000000007" y="470" as="sourcePoint" />
            <mxPoint x="330" y="280" as="targetPoint" />
          </mxGeometry>
        </mxCell>
        <mxCell id="1bVyddex_vhO6T4n7lc5-28" value="" style="curved=1;endArrow=none;html=1;rounded=0;dashed=1;dashPattern=8 8;strokeColor=default;endFill=0;" parent="1" edge="1">
          <mxGeometry width="50" height="50" relative="1" as="geometry">
            <mxPoint x="450" y="500" as="sourcePoint" />
            <mxPoint x="470" y="130" as="targetPoint" />
            <Array as="points">
              <mxPoint x="470" y="390" />
              <mxPoint x="400" y="350" />
              <mxPoint x="420" y="250" />
            </Array>
          </mxGeometry>
        </mxCell>
        <mxCell id="1bVyddex_vhO6T4n7lc5-48" value="Floor: 1" style="text;strokeColor=none;fillColor=none;html=1;fontSize=24;fontStyle=1;verticalAlign=middle;align=center;" parent="1" vertex="1">
          <mxGeometry x="40" y="590" width="100" height="40" as="geometry" />
        </mxCell>
        <mxCell id="1bVyddex_vhO6T4n7lc5-49" value="Room: 12" style="text;strokeColor=none;fillColor=none;html=1;fontSize=24;fontStyle=1;verticalAlign=middle;align=center;" parent="1" vertex="1">
          <mxGeometry x="160" y="590" width="150" height="40" as="geometry" />
        </mxCell>
        <mxCell id="1bVyddex_vhO6T4n7lc5-57" value="" style="shape=dimension;whiteSpace=wrap;html=1;align=center;points=[];verticalAlign=bottom;spacingBottom=-5;labelBackgroundColor=#ffffff;fontSize=14;fillColor=#0F0F0F;" parent="1" vertex="1">
          <mxGeometry x="140" y="480" width="100" height="40" as="geometry" />
        </mxCell>
        <mxCell id="rwuE25mSVGRdJIp783XI-3" value="" style="shape=dimension;direction=north;whiteSpace=wrap;html=1;align=right;points=[];verticalAlign=middle;labelBackgroundColor=#ffffff;fontSize=14;fillColor=#0F0F0F;" parent="1" vertex="1">
          <mxGeometry x="230" y="210" width="40" height="260" as="geometry" />
        </mxCell>
        <mxCell id="rwuE25mSVGRdJIp783XI-4" value="" style="shape=dimension;direction=south;whiteSpace=wrap;html=1;align=left;points=[];verticalAlign=middle;labelBackgroundColor=#ffffff;fillColor=#0F0F0F;" parent="1" vertex="1">
          <mxGeometry x="90" y="210" width="50" height="70" as="geometry" />
        </mxCell>
        <mxCell id="rwuE25mSVGRdJIp783XI-10" value="" style="verticalLabelPosition=bottom;html=1;verticalAlign=top;align=center;shape=mxgraph.floorplan.wall;fillColor=strokeColor;" parent="1" vertex="1">
          <mxGeometry x="175" y="990" width="385" height="10" as="geometry" />
        </mxCell>
        <mxCell id="rwuE25mSVGRdJIp783XI-14" value="" style="endArrow=classic;html=1;rounded=0;dashed=1;dashPattern=8 8;" parent="1" edge="1">
          <mxGeometry width="50" height="50" relative="1" as="geometry">
            <mxPoint x="110" y="840" as="sourcePoint" />
            <mxPoint x="230" y="840" as="targetPoint" />
          </mxGeometry>
        </mxCell>
        <mxCell id="rwuE25mSVGRdJIp783XI-15" value="entrance" style="edgeLabel;html=1;align=center;verticalAlign=middle;resizable=0;points=[];fontSize=14;" parent="rwuE25mSVGRdJIp783XI-14" vertex="1" connectable="0">
          <mxGeometry x="-0.5444" y="-3" relative="1" as="geometry">
            <mxPoint x="3" y="7" as="offset" />
          </mxGeometry>
        </mxCell>
        <mxCell id="rwuE25mSVGRdJIp783XI-23" value="" style="verticalLabelPosition=bottom;html=1;verticalAlign=top;align=center;shape=mxgraph.floorplan.wall;fillColor=strokeColor;direction=south;fontSize=14;" parent="1" vertex="1">
          <mxGeometry x="550" y="920" width="10" height="70" as="geometry" />
        </mxCell>
        <mxCell id="rwuE25mSVGRdJIp783XI-24" value="" style="verticalLabelPosition=bottom;html=1;verticalAlign=top;align=center;shape=mxgraph.floorplan.wall;fillColor=strokeColor;direction=south;fontSize=14;" parent="1" vertex="1">
          <mxGeometry x="550" y="730" width="10" height="40" as="geometry" />
        </mxCell>
        <mxCell id="rwuE25mSVGRdJIp783XI-25" value="" style="endArrow=none;dashed=1;html=1;rounded=0;dashPattern=8 8;strokeColor=default;fontSize=14;exitX=0;exitY=0;exitDx=0;exitDy=0;exitPerimeter=0;" parent="1" source="rwuE25mSVGRdJIp783XI-10" edge="1">
          <mxGeometry width="50" height="50" relative="1" as="geometry">
            <mxPoint x="195" y="880" as="sourcePoint" />
            <mxPoint x="170" y="690" as="targetPoint" />
          </mxGeometry>
        </mxCell>
        <mxCell id="rwuE25mSVGRdJIp783XI-26" value="" style="rounded=0;whiteSpace=wrap;html=1;fillColor=#0F0F0F;" parent="1" vertex="1">
          <mxGeometry x="475" y="920" width="75" height="70" as="geometry" />
        </mxCell>
        <mxCell id="rwuE25mSVGRdJIp783XI-27" value="" style="rounded=0;whiteSpace=wrap;html=1;fillColor=#0F0F0F;" parent="1" vertex="1">
          <mxGeometry x="175" y="930" width="75" height="60" as="geometry" />
        </mxCell>
        <mxCell id="rwuE25mSVGRdJIp783XI-29" value="" style="shape=dimension;direction=west;whiteSpace=wrap;html=1;align=center;points=[];verticalAlign=top;spacingTop=-8;labelBackgroundColor=#ffffff;fontSize=14;fillColor=#0F0F0F;" parent="1" vertex="1">
          <mxGeometry x="175" y="890" width="75" height="40" as="geometry" />
        </mxCell>
        <mxCell id="rwuE25mSVGRdJIp783XI-30" value="" style="shape=dimension;direction=west;whiteSpace=wrap;html=1;align=center;points=[];verticalAlign=top;spacingTop=-8;labelBackgroundColor=#ffffff;fontSize=14;fillColor=#0F0F0F;" parent="1" vertex="1">
          <mxGeometry x="475" y="900" width="75" height="60" as="geometry" />
        </mxCell>
        <mxCell id="rwuE25mSVGRdJIp783XI-31" value="" style="shape=dimension;direction=north;whiteSpace=wrap;html=1;align=right;points=[];verticalAlign=middle;labelBackgroundColor=#ffffff;fontSize=14;fillColor=#0F0F0F;" parent="1" vertex="1">
          <mxGeometry x="240" y="930" width="40" height="60" as="geometry" />
        </mxCell>
        <mxCell id="rwuE25mSVGRdJIp783XI-32" value="" style="shape=dimension;direction=south;whiteSpace=wrap;html=1;align=left;points=[];verticalAlign=middle;labelBackgroundColor=#ffffff;fontSize=14;fillColor=#0F0F0F;" parent="1" vertex="1">
          <mxGeometry x="430" y="920" width="75" height="70" as="geometry" />
        </mxCell>
        <mxCell id="gWkQIPcL1XroiFsO1PQK-1" value="229" style="text;html=1;strokeColor=none;fillColor=none;align=center;verticalAlign=middle;whiteSpace=wrap;rounded=0;" vertex="1" parent="1">
          <mxGeometry x="140" y="150" width="60" height="30" as="geometry" />
        </mxCell>
        <mxCell id="gWkQIPcL1XroiFsO1PQK-2" value="269" style="text;html=1;strokeColor=none;fillColor=none;align=center;verticalAlign=middle;whiteSpace=wrap;rounded=0;rotation=270;" vertex="1" parent="1">
          <mxGeometry x="40" y="230" width="60" height="30" as="geometry" />
        </mxCell>
        <mxCell id="gWkQIPcL1XroiFsO1PQK-3" value="2013" style="text;html=1;strokeColor=none;fillColor=none;align=center;verticalAlign=middle;whiteSpace=wrap;rounded=0;rotation=270;" vertex="1" parent="1">
          <mxGeometry x="210" y="340" width="60" height="30" as="geometry" />
        </mxCell>
        <mxCell id="gWkQIPcL1XroiFsO1PQK-4" value="1508" style="text;html=1;strokeColor=none;fillColor=none;align=center;verticalAlign=middle;whiteSpace=wrap;rounded=0;" vertex="1" parent="1">
          <mxGeometry x="160" y="485" width="60" height="30" as="geometry" />
        </mxCell>
        <mxCell id="gWkQIPcL1XroiFsO1PQK-6" value="" style="verticalLabelPosition=bottom;html=1;verticalAlign=top;align=center;shape=mxgraph.floorplan.wall;fillColor=strokeColor;" vertex="1" parent="1">
          <mxGeometry x="170" y="690" width="140" height="10" as="geometry" />
        </mxCell>
        <mxCell id="gWkQIPcL1XroiFsO1PQK-7" value="" style="verticalLabelPosition=bottom;html=1;verticalAlign=top;align=center;shape=mxgraph.floorplan.wall;fillColor=strokeColor;" vertex="1" parent="1">
          <mxGeometry x="310" y="720" width="250" height="10" as="geometry" />
        </mxCell>
        <mxCell id="gWkQIPcL1XroiFsO1PQK-8" value="" style="verticalLabelPosition=bottom;html=1;verticalAlign=top;align=center;shape=mxgraph.floorplan.wall;fillColor=strokeColor;direction=south;fontSize=14;" vertex="1" parent="1">
          <mxGeometry x="310" y="690" width="10" height="40" as="geometry" />
        </mxCell>
        <mxCell id="gWkQIPcL1XroiFsO1PQK-9" value="" style="shape=dimension;whiteSpace=wrap;html=1;align=center;points=[];verticalAlign=bottom;spacingBottom=-5;labelBackgroundColor=#ffffff" vertex="1" parent="1">
          <mxGeometry x="172" y="780" width="378" height="40" as="geometry" />
        </mxCell>
        <mxCell id="gWkQIPcL1XroiFsO1PQK-10" value="3905" style="text;html=1;strokeColor=none;fillColor=none;align=center;verticalAlign=middle;whiteSpace=wrap;rounded=0;" vertex="1" parent="1">
          <mxGeometry x="331" y="780" width="60" height="30" as="geometry" />
        </mxCell>
        <mxCell id="gWkQIPcL1XroiFsO1PQK-11" value="416" style="text;html=1;strokeColor=none;fillColor=none;align=center;verticalAlign=middle;whiteSpace=wrap;rounded=0;" vertex="1" parent="1">
          <mxGeometry x="180" y="870" width="60" height="30" as="geometry" />
        </mxCell>
        <mxCell id="gWkQIPcL1XroiFsO1PQK-12" value="249" style="text;html=1;strokeColor=none;fillColor=none;align=center;verticalAlign=middle;whiteSpace=wrap;rounded=0;" vertex="1" parent="1">
          <mxGeometry x="482.5" y="870" width="60" height="30" as="geometry" />
        </mxCell>
        <mxCell id="gWkQIPcL1XroiFsO1PQK-13" value="1645" style="text;html=1;strokeColor=none;fillColor=none;align=center;verticalAlign=middle;whiteSpace=wrap;rounded=0;" vertex="1" parent="1">
          <mxGeometry x="205" y="735" width="60" height="30" as="geometry" />
        </mxCell>
        <mxCell id="gWkQIPcL1XroiFsO1PQK-14" value="" style="shape=dimension;whiteSpace=wrap;html=1;align=center;points=[];verticalAlign=bottom;spacingBottom=-5;labelBackgroundColor=#ffffff" vertex="1" parent="1">
          <mxGeometry x="170" y="730" width="140" height="40" as="geometry" />
        </mxCell>
        <mxCell id="gWkQIPcL1XroiFsO1PQK-15" value="" style="shape=dimension;direction=south;whiteSpace=wrap;html=1;align=left;points=[];verticalAlign=middle;labelBackgroundColor=#ffffff" vertex="1" parent="1">
          <mxGeometry x="510" y="730" width="40" height="40" as="geometry" />
        </mxCell>
        <mxCell id="gWkQIPcL1XroiFsO1PQK-16" value="570" style="text;html=1;strokeColor=none;fillColor=none;align=center;verticalAlign=middle;whiteSpace=wrap;rounded=0;rotation=270;" vertex="1" parent="1">
          <mxGeometry x="470" y="735" width="60" height="30" as="geometry" />
        </mxCell>
        <mxCell id="gWkQIPcL1XroiFsO1PQK-17" value="?" style="shape=dimension;direction=south;whiteSpace=wrap;html=1;align=left;points=[];verticalAlign=middle;labelBackgroundColor=#ffffff" vertex="1" parent="1">
          <mxGeometry x="80" y="700" width="92" height="230" as="geometry" />
        </mxCell>
      </root>
    </mxGraphModel>
  </diagram>
</mxfile>
